<?xml version="1.0" encoding="utf-8"?>
<!-- Generator: Adobe Illustrator 16.2.0, SVG Export Plug-In . SVG Version: 6.00 Build 0)  -->
<!DOCTYPE svg PUBLIC "-//W3C//DTD SVG 1.1//EN" "http://www.w3.org/Graphics/SVG/1.1/DTD/svg11.dtd">
<svg version="1.1" id="Layer_1" xmlns="http://www.w3.org/2000/svg" xmlns:xlink="http://www.w3.org/1999/xlink" x="0px" y="0px"
	 width="311.333px" height="66px" viewBox="0 0 311.333 66" enable-background="new 0 0 311.333 66" xml:space="preserve">
<g>
	<path d="M22.376,14.458v1.12c-1.27,0.038-2.231,0.177-2.884,0.42c-0.654,0.243-1.092,0.691-1.316,1.344
		c-0.224,0.654-0.336,1.671-0.336,3.052V48.17c0,1.345,0.112,2.353,0.336,3.024c0.224,0.672,0.662,1.12,1.316,1.345
		c0.653,0.223,1.614,0.373,2.884,0.447v1.12c-0.859-0.074-1.932-0.12-3.22-0.14c-1.288-0.019-2.586-0.028-3.892-0.028
		c-1.456,0-2.819,0.01-4.088,0.028c-1.27,0.02-2.296,0.065-3.08,0.14v-1.12c1.269-0.074,2.23-0.225,2.884-0.447
		c0.653-0.225,1.092-0.673,1.316-1.345c0.224-0.672,0.336-1.68,0.336-3.024V20.395c0-1.381-0.112-2.398-0.336-3.052
		c-0.224-0.653-0.663-1.101-1.316-1.344c-0.653-0.243-1.615-0.382-2.884-0.42v-1.12c0.784,0.038,1.811,0.075,3.08,0.112
		c1.269,0.038,2.632,0.056,4.088,0.056c1.306,0,2.604-0.019,3.892-0.056C20.444,14.534,21.517,14.496,22.376,14.458z M40.184,14.458
		v1.12c-1.158,0.149-2.277,0.523-3.36,1.12c-1.083,0.598-2.166,1.587-3.248,2.968L22.768,33.499L24,30.754L37.44,49.57
		c0.635,0.934,1.325,1.662,2.072,2.184c0.746,0.523,1.698,0.934,2.856,1.232v1.12c-0.896-0.074-2.007-0.12-3.332-0.14
		c-1.326-0.019-2.455-0.028-3.388-0.028c-0.635,0-1.41,0.01-2.324,0.028c-0.916,0.02-2.063,0.065-3.444,0.14v-1.12
		c1.269-0.074,2.072-0.299,2.408-0.672s0.205-0.988-0.392-1.848l-8.176-12.32c-0.748-1.156-1.41-2.025-1.988-2.604
		c-0.579-0.579-1.176-0.961-1.792-1.148c-0.616-0.187-1.391-0.299-2.324-0.336v-1.12c1.568-0.037,2.884-0.345,3.948-0.924
		c1.064-0.579,1.951-1.316,2.66-2.212L29.6,22.97c1.232-1.568,2.072-2.893,2.52-3.976c0.448-1.083,0.429-1.913-0.056-2.492
		c-0.485-0.579-1.512-0.886-3.08-0.924v-1.12c1.082,0.038,2.184,0.075,3.304,0.112c1.12,0.038,2.165,0.056,3.136,0.056
		C37.477,14.626,39.064,14.57,40.184,14.458z"/>
	<path d="M60.512,14.178l13.664,35.224c0.56,1.42,1.194,2.361,1.904,2.828c0.709,0.467,1.363,0.719,1.96,0.756v1.12
		c-0.748-0.074-1.662-0.12-2.744-0.14c-1.083-0.019-2.166-0.028-3.248-0.028c-1.456,0-2.819,0.01-4.088,0.028
		c-1.27,0.02-2.296,0.065-3.08,0.14v-1.12c1.904-0.074,3.117-0.4,3.64-0.98c0.522-0.578,0.41-1.819-0.336-3.724L57.768,20.451
		l0.896-0.728L48.92,45.035c-0.784,2.016-1.158,3.593-1.12,4.731c0.037,1.14,0.466,1.951,1.288,2.437
		c0.821,0.484,2.016,0.746,3.584,0.783v1.12c-1.046-0.074-2.138-0.12-3.276-0.14c-1.14-0.019-2.194-0.028-3.164-0.028
		c-0.934,0-1.728,0.01-2.38,0.028c-0.654,0.02-1.26,0.065-1.82,0.14v-1.12c0.747-0.186,1.512-0.625,2.296-1.316
		c0.784-0.689,1.493-1.875,2.128-3.556l13.16-33.936c0.149,0,0.298,0,0.448,0C60.212,14.178,60.362,14.178,60.512,14.178z
		 M67.344,37.979v1.12H50.656l0.56-1.12H67.344z"/>
	<path d="M78.936,14.458c0.784,0.038,1.811,0.075,3.08,0.112c1.269,0.038,2.52,0.056,3.752,0.056c1.754,0,3.434-0.019,5.04-0.056
		c1.604-0.037,2.744-0.056,3.416-0.056c4.517,0,7.896,1.027,10.136,3.08c2.24,2.054,3.36,4.704,3.36,7.952
		c0,1.344-0.224,2.754-0.672,4.228c-0.448,1.475-1.223,2.838-2.324,4.088c-1.102,1.251-2.604,2.269-4.508,3.052
		c-1.904,0.784-4.312,1.176-7.224,1.176h-5.376v-1.119h4.816c2.65,0,4.676-0.504,6.076-1.512c1.4-1.008,2.352-2.333,2.856-3.977
		c0.504-1.643,0.756-3.416,0.756-5.32c0-3.546-0.7-6.197-2.1-7.952c-1.4-1.754-3.799-2.632-7.196-2.632
		c-1.718,0-2.838,0.317-3.36,0.952c-0.523,0.635-0.784,1.923-0.784,3.864V48.17c0,1.345,0.14,2.353,0.42,3.024
		c0.28,0.672,0.83,1.12,1.652,1.345c0.821,0.223,2.016,0.373,3.584,0.447v1.12c-0.971-0.074-2.203-0.12-3.696-0.14
		c-1.494-0.019-3.006-0.028-4.536-0.028c-1.456,0-2.819,0.01-4.088,0.028c-1.27,0.02-2.296,0.065-3.08,0.14v-1.12
		c1.269-0.074,2.23-0.225,2.884-0.447c0.653-0.225,1.092-0.673,1.316-1.345c0.224-0.672,0.336-1.68,0.336-3.024V20.395
		c0-1.381-0.112-2.398-0.336-3.052c-0.224-0.653-0.663-1.101-1.316-1.344c-0.653-0.243-1.615-0.382-2.884-0.42V14.458z"/>
	<path d="M142.496,14.458c-0.149,1.419-0.252,2.791-0.308,4.116c-0.056,1.326-0.084,2.343-0.084,3.052
		c0,0.896,0.019,1.736,0.056,2.52c0.037,0.784,0.074,1.475,0.112,2.072h-1.288c-0.262-2.613-0.616-4.676-1.064-6.188
		c-0.448-1.512-1.232-2.604-2.352-3.276s-2.856-1.008-5.208-1.008h-3.024V47.61c0,1.493,0.14,2.614,0.42,3.36
		c0.28,0.747,0.83,1.251,1.652,1.512c0.821,0.262,2.016,0.43,3.584,0.504v1.12c-0.971-0.074-2.203-0.12-3.696-0.14
		c-1.494-0.019-3.006-0.028-4.536-0.028c-1.68,0-3.258,0.01-4.732,0.028c-1.475,0.02-2.66,0.065-3.556,0.14v-1.12
		c1.568-0.074,2.762-0.242,3.584-0.504c0.821-0.261,1.372-0.765,1.652-1.512c0.28-0.746,0.42-1.867,0.42-3.36V15.747h-3.024
		c-2.315,0-4.042,0.336-5.18,1.008c-1.139,0.672-1.932,1.764-2.38,3.276c-0.448,1.512-0.803,3.575-1.064,6.188h-1.288
		c0.074-0.597,0.121-1.288,0.14-2.072c0.019-0.784,0.028-1.624,0.028-2.52c0-0.709-0.028-1.727-0.084-3.052
		c-0.056-1.325-0.159-2.696-0.308-4.116c1.568,0.038,3.276,0.075,5.124,0.112c1.848,0.038,3.705,0.056,5.572,0.056
		c1.867,0,3.565,0,5.096,0c1.53,0,3.22,0,5.068,0c1.848,0,3.705-0.019,5.572-0.056C139.266,14.534,140.964,14.496,142.496,14.458z"
		/>
	<path d="M159.575,14.178l13.664,35.224c0.56,1.42,1.194,2.361,1.904,2.828c0.709,0.467,1.362,0.719,1.96,0.756v1.12
		c-0.747-0.074-1.662-0.12-2.744-0.14c-1.083-0.019-2.166-0.028-3.248-0.028c-1.456,0-2.819,0.01-4.088,0.028
		c-1.27,0.02-2.296,0.065-3.08,0.14v-1.12c1.904-0.074,3.116-0.4,3.64-0.98c0.522-0.578,0.411-1.819-0.336-3.724l-10.416-27.832
		l0.896-0.728l-9.744,25.313c-0.784,2.016-1.158,3.593-1.12,4.731c0.037,1.14,0.466,1.951,1.288,2.437
		c0.821,0.484,2.016,0.746,3.584,0.783v1.12c-1.046-0.074-2.138-0.12-3.276-0.14c-1.14-0.019-2.194-0.028-3.164-0.028
		c-0.934,0-1.728,0.01-2.38,0.028c-0.654,0.02-1.26,0.065-1.82,0.14v-1.12c0.747-0.186,1.512-0.625,2.296-1.316
		c0.784-0.689,1.493-1.875,2.128-3.556l13.16-33.936c0.148,0,0.298,0,0.447,0S159.426,14.178,159.575,14.178z M166.407,37.979v1.12
		h-16.688l0.56-1.12H166.407z M165.063,2.25c0.746-0.485,1.428-0.663,2.044-0.532c0.616,0.131,1.072,0.439,1.372,0.924
		c0.298,0.485,0.373,1.018,0.224,1.596c-0.149,0.58-0.616,1.13-1.399,1.652c-0.784,0.485-1.69,0.924-2.717,1.316
		c-1.027,0.392-2.222,0.859-3.584,1.4c-1.363,0.542-3.015,1.298-4.956,2.268l-0.392-0.728c1.717-1.307,3.126-2.455,4.229-3.444
		c1.101-0.989,2.044-1.857,2.827-2.604C163.495,3.352,164.279,2.736,165.063,2.25z"/>
	<path d="M184.326,46.267c1.456,0,2.613,0.384,3.473,1.147c0.858,0.766,1.288,1.82,1.288,3.164s-0.43,2.399-1.288,3.164
		c-0.859,0.766-2.017,1.148-3.473,1.148s-2.613-0.383-3.472-1.148c-0.859-0.765-1.288-1.82-1.288-3.164s0.429-2.398,1.288-3.164
		C181.713,46.65,182.87,46.267,184.326,46.267z"/>
	<path d="M204.653,24.539v34.16c0,1.755,0.448,2.921,1.345,3.5c0.896,0.578,2.128,0.868,3.695,0.868v1.176
		c-0.971-0.037-2.306-0.084-4.004-0.14c-1.699-0.056-3.5-0.084-5.403-0.084c-1.382,0-2.735,0.028-4.061,0.084
		s-2.324,0.103-2.996,0.14v-1.176c1.232,0,2.101-0.262,2.604-0.784c0.504-0.523,0.756-1.531,0.756-3.023v-28
		c0-1.68-0.262-2.92-0.784-3.724c-0.523-0.803-1.456-1.204-2.8-1.204v-1.176c1.194,0.112,2.352,0.168,3.472,0.168
		c1.53,0,2.986-0.064,4.368-0.196C202.227,24.996,203.496,24.8,204.653,24.539z M213.334,24.371c2.837,0,5.217,1.157,7.14,3.472
		c1.923,2.315,2.884,5.806,2.884,10.472c0,3.621-0.541,6.664-1.624,9.128s-2.585,4.321-4.508,5.572
		c-1.923,1.25-4.209,1.876-6.859,1.876c-1.456,0-2.782-0.252-3.977-0.756c-1.195-0.504-2.109-1.223-2.744-2.156l0.561-0.729
		c0.372,0.672,0.904,1.195,1.596,1.568c0.69,0.373,1.484,0.561,2.38,0.561c1.68,0,3.005-0.569,3.977-1.709
		c0.97-1.138,1.67-2.744,2.1-4.815c0.429-2.072,0.644-4.545,0.644-7.42c0-3.21-0.205-5.73-0.615-7.56
		c-0.412-1.829-0.972-3.136-1.681-3.92c-0.709-0.784-1.567-1.176-2.576-1.176c-1.344,0-2.566,0.523-3.668,1.568
		c-1.102,1.045-1.727,2.539-1.876,4.48l-0.279-1.96c0.672-2.128,1.819-3.742,3.443-4.844
		C209.273,24.922,211.168,24.371,213.334,24.371z"/>
	<path d="M241.277,24.371c2.725,0,5.114,0.504,7.168,1.512c2.053,1.008,3.658,2.632,4.816,4.872c1.156,2.24,1.735,5.208,1.735,8.904
		c0,3.696-0.579,6.655-1.735,8.877c-1.158,2.221-2.764,3.836-4.816,4.844c-2.054,1.008-4.443,1.512-7.168,1.512
		c-2.651,0-5.012-0.504-7.084-1.512s-3.696-2.623-4.872-4.844c-1.176-2.222-1.764-5.181-1.764-8.877
		c0-3.695,0.588-6.664,1.764-8.904c1.176-2.24,2.8-3.864,4.872-4.872C236.266,24.875,238.626,24.371,241.277,24.371z M241.277,25.49
		c-1.493,0-2.744,1.111-3.752,3.332c-1.008,2.222-1.512,5.834-1.512,10.836c0,5.004,0.504,8.605,1.512,10.809
		s2.259,3.304,3.752,3.304c1.53,0,2.79-1.101,3.78-3.304c0.988-2.203,1.483-5.805,1.483-10.809c0-5.002-0.495-8.614-1.483-10.836
		C244.067,26.602,242.808,25.49,241.277,25.49z"/>
	<path d="M269.557,24.371c1.568,0,2.94,0.196,4.116,0.588s2.024,0.775,2.548,1.148c1.27,0.859,2.053,0.299,2.353-1.68h1.176
		c-0.075,1.046-0.131,2.324-0.168,3.836c-0.038,1.512-0.056,3.52-0.056,6.02h-1.177c-0.187-1.38-0.541-2.744-1.063-4.088
		c-0.523-1.344-1.279-2.445-2.269-3.304c-0.989-0.858-2.268-1.288-3.836-1.288c-1.083,0-1.997,0.308-2.744,0.924
		c-0.747,0.616-1.119,1.503-1.119,2.66c0,1.12,0.336,2.1,1.008,2.94s1.54,1.643,2.604,2.409c1.064,0.766,2.175,1.577,3.332,2.436
		c1.866,1.381,3.444,2.771,4.732,4.172s1.932,3.22,1.932,5.46c0,1.68-0.485,3.146-1.456,4.396c-0.971,1.252-2.249,2.213-3.836,2.885
		s-3.351,1.008-5.292,1.008c-1.12,0-2.119-0.112-2.996-0.336c-0.877-0.225-1.634-0.504-2.268-0.84
		c-0.485-0.225-0.943-0.439-1.372-0.645c-0.43-0.205-0.831-0.383-1.204-0.531c-0.374-0.113-0.7,0.019-0.979,0.392
		c-0.28,0.374-0.496,0.896-0.645,1.567h-1.176c0.074-1.193,0.13-2.65,0.168-4.367c0.036-1.717,0.056-3.994,0.056-6.832h1.176
		c0.225,2.016,0.635,3.799,1.232,5.348c0.597,1.55,1.409,2.764,2.436,3.641s2.324,1.315,3.893,1.315
		c0.971,0,1.866-0.308,2.688-0.925c0.821-0.615,1.232-1.632,1.232-3.051c0-1.643-0.532-3.006-1.596-4.088
		c-1.064-1.083-2.418-2.259-4.061-3.529c-1.195-0.97-2.324-1.932-3.388-2.883c-1.064-0.953-1.932-1.997-2.604-3.137
		c-0.672-1.139-1.008-2.436-1.008-3.892c0-1.68,0.448-3.099,1.344-4.256c0.896-1.157,2.081-2.024,3.557-2.604
		C266.3,24.66,267.877,24.371,269.557,24.371z"/>
	<path d="M295.708,15.97v9.184h6.608v1.12h-6.608v22.624c0,1.12,0.205,1.914,0.616,2.38c0.41,0.468,1.026,0.7,1.848,0.7
		c0.672,0,1.344-0.252,2.017-0.756c0.672-0.504,1.269-1.372,1.792-2.604l0.951,0.504c-0.598,1.68-1.503,3.061-2.716,4.144
		c-1.213,1.082-2.865,1.624-4.956,1.624c-1.231,0-2.314-0.16-3.248-0.477s-1.717-0.793-2.352-1.428
		c-0.821-0.82-1.363-1.838-1.624-3.052c-0.262-1.213-0.392-2.79-0.392-4.731V26.274h-4.704v-1.12h4.704v-7.392
		c1.567,0,3.014-0.14,4.34-0.42C293.309,17.063,294.551,16.605,295.708,15.97z"/>
</g>
<g>
</g>
<g>
</g>
<g>
</g>
<g>
</g>
<g>
</g>
<g>
</g>
</svg>
